<svg xmlns="http://www.w3.org/2000/svg" width="24" height="24" viewBox="0 0 24 24" fill="none" stroke="currentColor" stroke-width="2" stroke-linecap="round" stroke-linejoin="round" class="hicon hicon-apple"><path stroke="#333333" stroke-linecap="round" stroke-linejoin="round" stroke-width="2" d="M18.668 8.41c-2.738-2.858-5.379-.68-6.356.51-.995-1.19-4.17-3.32-6.956-.466-3.482 3.567.497 10.7 3.482 12.229 1.492.764 3.474-.029 3.474-.538 0 .51 1.466 1.275 2.933.51 2.934-1.53 6.845-8.674 3.423-12.246z"></path><path stroke="#333333" stroke-linecap="round" stroke-linejoin="round" stroke-width="2" d="M18.668 8.41c-2.738-2.858-5.379-.68-6.356.51-.995-1.19-4.17-3.32-6.956-.466-3.482 3.567.497 10.7 3.482 12.229 1.492.764 3.474-.029 3.474-.538 0 .51 1.466 1.275 2.933.51 2.934-1.53 6.845-8.674 3.423-12.246zM12.74 5.278L14.518 3.5"></path></svg>