<svg xmlns="http://www.w3.org/2000/svg" width="24" height="24" viewBox="0 0 24 24" fill="none" stroke="currentColor" stroke-width="2" stroke-linecap="round" stroke-linejoin="round" class="hicon hicon-banana"><g clip-path="url(#clip0)"><path stroke="#333333" stroke-width="2" d="M19.893 17.622a7.969 7.969 0 01-10.886 2.917c-.226-.13-.39-.24-.506-.328l.014-.008c.26-.155.615-.324 1.074-.528l.42-.185c.824-.361 1.835-.804 2.786-1.373 1.126-.675 2.266-1.579 3.004-2.859.74-1.28.952-2.718.973-4.03.018-1.108-.104-2.206-.203-3.1l-.05-.456a10.74 10.74 0 01-.08-1.21c.135.057.311.144.537.274a7.969 7.969 0 012.917 10.886z"></path><path stroke="#333333" stroke-linecap="round" stroke-linejoin="round" stroke-width="2" d="M13.326 2l1.429 2.07"></path></g><defs><clippath id="clip0"><path fill="white" d="M0 0h24v24H0z"></path></clippath></defs></svg>