<svg xmlns="http://www.w3.org/2000/svg" width="24" height="24" viewBox="0 0 24 24" fill="none" stroke="currentColor" stroke-width="2" stroke-linecap="round" stroke-linejoin="round" class="hicon hicon-battery"><path d="M6 10C6 9.44772 6.44772 9 7 9H19C19.5523 9 20 9.44772 20 10V16C20 16.5523 19.5523 17 19 17H7C6.44772 17 6 16.5523 6 16V10Z" stroke="currentColor" stroke-width="2" stroke-linecap="round" stroke-linejoin="round"></path><path d="M4 12.5C4 12.2239 4.22386 12 4.5 12C4.77614 12 5 12.2239 5 12.5V13.5C5 13.7761 4.77614 14 4.5 14C4.22386 14 4 13.7761 4 13.5V12.5Z" stroke="currentColor" stroke-width="2" stroke-linecap="round" stroke-linejoin="round"></path></svg>