<svg xmlns="http://www.w3.org/2000/svg" width="24" height="24" viewBox="0 0 24 24" fill="none" stroke="currentColor" stroke-width="2" stroke-linecap="round" stroke-linejoin="round" class="hicon hicon-battery-half"><path d="M13 10V16M7 17H19C19.5523 17 20 16.5523 20 16V10C20 9.44772 19.5523 9 19 9H7C6.44772 9 6 9.44772 6 10V16C6 16.5523 6.44772 17 7 17ZM4.5 14C4.22386 14 4 13.7761 4 13.5V12.5C4 12.2239 4.22386 12 4.5 12C4.77614 12 5 12.2239 5 12.5V13.5C5 13.7761 4.77614 14 4.5 14Z" stroke="currentColor" stroke-width="2" stroke-linecap="round" stroke-linejoin="round"></path></svg>