<svg xmlns="http://www.w3.org/2000/svg" width="24" height="24" viewBox="0 0 24 24" fill="none" stroke="currentColor" stroke-width="2" stroke-linecap="round" stroke-linejoin="round" class="hicon hicon-beer"><path stroke="currentColor" stroke-linecap="round" stroke-linejoin="round" stroke-width="2" d="M5 8v9.75C5 19.545 6.387 21 8.097 21h6.195c1.71 0 3.098-1.455 3.098-3.25m0-9.75v3.25m0-3.25c0-1.105-1.285-2-2.39-2a2 2 0 10-4 0V5a2 2 0 10-4 0 2 2 0 00-2 2v1.5h3v2a1.5 1.5 0 003 0V9h6.39V8zm0 3.25v6.5m0-6.5c3.496.51 3.465 5.793 0 6.5"></path><path stroke="currentColor" stroke-linecap="round" stroke-linejoin="round" stroke-width="2" d="M13 13v4"></path><path stroke="currentColor" stroke-linecap="round" stroke-linejoin="round" stroke-width="2" d="M9 15v2"></path></svg>