<svg xmlns="http://www.w3.org/2000/svg" width="24" height="24" viewBox="0 0 24 24" fill="none" stroke="currentColor" stroke-width="2" stroke-linecap="round" stroke-linejoin="round" class="hicon hicon-cake"><path stroke="currentColor" stroke-linecap="round" stroke-linejoin="round" stroke-width="2" d="M19 15l-1.083 6H7.083l-1.097-6M19 15a2.5 2.5 0 002-4m-2 4h-6a2.5 2.5 0 01-5 0H5.986m0 0L5.5 14a2.5 2.5 0 11.486-4.953L6 8a4 4 0 017.957-.59m0 0C14.69 6.58 15.805 6 17 6a4 4 0 014 4v1m-7.043-3.59c.028.193.043.39.043.59m5 2c.818 0 1.544.393 2 1"></path><circle stroke="currentColor" cx="10.5" cy="8.5" r="1.5" stroke-linecap="round" stroke-linejoin="round" stroke-width="2"></circle></svg>