<svg xmlns="http://www.w3.org/2000/svg" width="24" height="24" viewBox="0 0 24 24" fill="none" stroke="currentColor" stroke-width="2" stroke-linecap="round" stroke-linejoin="round" class="hicon hicon-candy"><path stroke="#333333" stroke-linecap="round" stroke-linejoin="round" stroke-width="2" d="M16.142 7.694l1.323-2.407a1 1 0 011.743-.018l2.803 4.856a1 1 0 01-.806 1.498l-2.847.17M7.962 17.795l-1.57 2.38a1 1 0 01-1.701-.05l-2.804-4.856a1 1 0 01.887-1.5l2.746.057m1.012-4.85a6.45 6.45 0 00-.9 1.97 6.502 6.502 0 009.086 7.545M6.532 8.977l8.186 9.516M6.532 8.976a6.507 6.507 0 012.38-2.114m5.806 11.63a6.511 6.511 0 002.553-2.183M8.913 6.862a6.5 6.5 0 018.358 9.447M8.913 6.862l8.358 9.447"></path></svg>