<svg xmlns="http://www.w3.org/2000/svg" width="24" height="24" viewBox="0 0 24 24" fill="none" stroke="currentColor" stroke-width="2" stroke-linecap="round" stroke-linejoin="round" class="hicon hicon-discount-empty"><path stroke="#333333" stroke-linecap="round" stroke-linejoin="round" stroke-width="2" d="M3 3c.4.598 1.145 1 2 1s1.6-.402 2-1c.3-.598.859-1 1.5-1s1.2.402 1.5 1c.4.598 1.145 1 2 1s1.6-.402 2-1c.3-.598.859-1 1.5-1s1.2.402 1.5 1c.4.598 1.145 1 2 1s1.6-.402 2-1v18c-.4-.598-1.145-1-2-1s-1.6.402-2 1c-.3.598-.859 1-1.5 1s-1.2-.402-1.5-1c-.4-.598-1.145-1-2-1s-1.6.402-2 1c-.3.598-.859 1-1.5 1s-1.2-.402-1.5-1c-.4-.598-1.145-1-2-1s-1.6.402-2 1V3z"></path></svg>