<svg xmlns="http://www.w3.org/2000/svg" width="24" height="24" viewBox="0 0 24 24" fill="none" stroke="currentColor" stroke-width="2" stroke-linecap="round" stroke-linejoin="round" class="hicon hicon-face-id"><path stroke="currentColor" stroke-linecap="round" stroke-linejoin="round" stroke-width="2" d="M16 20h2a2 2 0 002-2v-2M8 4H6a2 2 0 00-2 2v2M8 20H6a2 2 0 01-2-2v-2M16 4h2a2 2 0 012 2v2M12.5 9v2.059a2 2 0 01-1.367 1.897L11 13M8 9v1.5M16 9v1.5M15 16l-.317.158a6 6 0 01-5.366 0L9 16"></path></svg>