<svg xmlns="http://www.w3.org/2000/svg" width="24" height="24" viewBox="0 0 24 24" fill="none" stroke="currentColor" stroke-width="2" stroke-linecap="round" stroke-linejoin="round" class="hicon hicon-figma"><circle cx="16" cy="12" r="3" stroke="currentColor" stroke-width="2" stroke-linecap="round" stroke-linejoin="round"></circle><path d="M12.5 19C12.5 20.6569 10.6378 22 8.9877 22C7.33764 22 6 20.6569 6 19C6 17.3431 7.33764 16 8.9877 16C13 16 12.5 16 12.5 19ZM12.5 19V2" stroke="currentColor" stroke-width="2" stroke-linecap="round" stroke-linejoin="round"></path><path d="M9 2H16C17.6569 2 19 3.34315 19 5C19 6.65685 17.6569 8 16 8H9" stroke="currentColor" stroke-width="2" stroke-linecap="round" stroke-linejoin="round"></path><path d="M16 15H9C7.34315 15 6 13.6569 6 12C6 10.3431 7.34315 9 9 9H16" stroke="currentColor" stroke-width="2" stroke-linecap="round" stroke-linejoin="round"></path><path d="M9 8C7.34315 8 6 6.65685 6 5C6 3.34315 7.34315 2 9 2" stroke="currentColor" stroke-width="2" stroke-linecap="round" stroke-linejoin="round"></path></svg>