<svg xmlns="http://www.w3.org/2000/svg" width="24" height="24" viewBox="0 0 24 24" fill="none" stroke="currentColor" stroke-width="2" stroke-linecap="round" stroke-linejoin="round" class="hicon hicon-hourglass-top"><path stroke="currentColor" stroke-linecap="round" stroke-linejoin="round" stroke-width="2" d="M16.5 17.106V18a2 2 0 01-2 2h-6a2 2 0 01-2-2v-.894a2 2 0 01.336-1.11L8.7 13.2a2 2 0 00-.085-2.337l-2.194-2.82A2 2 0 016 6.814V5.707A1.707 1.707 0 017.707 4h7.586A1.707 1.707 0 0117 5.707v1.107a2 2 0 01-.421 1.228l-2.194 2.82A2 2 0 0014.3 13.2l1.864 2.797a2 2 0 01.336 1.11zM12 9h-1"></path></svg>