<svg xmlns="http://www.w3.org/2000/svg" width="24" height="24" viewBox="0 0 24 24" fill="none" stroke="currentColor" stroke-width="2" stroke-linecap="round" stroke-linejoin="round" class="hicon hicon-hourglass-right"><path stroke="currentColor" stroke-linecap="round" stroke-linejoin="round" stroke-width="2" d="M6.894 7.5H6a2 2 0 00-2 2v6a2 2 0 002 2h.894a2 2 0 001.11-.336L10.8 15.3a2 2 0 012.337.085l2.82 2.194a2 2 0 001.228.421h1.107A1.707 1.707 0 0020 16.293V8.707A1.707 1.707 0 0018.293 7h-1.107a2 2 0 00-1.228.421l-2.82 2.194A2 2 0 0110.8 9.7L8.004 7.836a2 2 0 00-1.11-.336zM17.5 13.5v2"></path></svg>