<svg xmlns="http://www.w3.org/2000/svg" width="24" height="24" viewBox="0 0 24 24" fill="none" stroke="currentColor" stroke-width="2" stroke-linecap="round" stroke-linejoin="round" class="hicon hicon-hourglass-bottom"><path stroke="currentColor" stroke-linecap="round" stroke-linejoin="round" stroke-width="2" d="M7 7.394V6.5a2 2 0 012-2h6a2 2 0 012 2v.894a2 2 0 01-.336 1.11L14.8 11.3a2 2 0 00.085 2.337l2.194 2.82a2 2 0 01.421 1.228v1.107a1.707 1.707 0 01-1.707 1.707H8.207A1.707 1.707 0 016.5 18.793v-1.107a2 2 0 01.421-1.228l2.194-2.82A2 2 0 009.2 11.3L7.336 8.504A2 2 0 017 7.394zM11 18h2"></path></svg>