<svg xmlns="http://www.w3.org/2000/svg" width="24" height="24" viewBox="0 0 24 24" fill="none" stroke="currentColor" stroke-width="2" stroke-linecap="round" stroke-linejoin="round" class="hicon hicon-hourglass-left"><path stroke="currentColor" stroke-linecap="round" stroke-linejoin="round" stroke-width="2" d="M17.106 7.5H18a2 2 0 012 2v6a2 2 0 01-2 2h-.894a2 2 0 01-1.11-.336L13.2 15.3a2 2 0 00-2.337.085l-2.82 2.194A2 2 0 016.814 18H5.707A1.707 1.707 0 014 16.293V8.707A1.707 1.707 0 015.707 7h1.107a2 2 0 011.228.421l2.82 2.194A2 2 0 0013.2 9.7l2.797-1.864a2 2 0 011.11-.336zM6.5 13.5v2"></path></svg>