<svg xmlns="http://www.w3.org/2000/svg" width="24" height="24" viewBox="0 0 24 24" fill="none" stroke="currentColor" stroke-width="2" stroke-linecap="round" stroke-linejoin="round" class="hicon hicon-link-2"><path d="M7.29175 11.5751H17.1628" stroke="#333333" stroke-width="2" stroke-linecap="round" stroke-linejoin="round"></path><path d="M10.8793 9.55634C10.4983 9.21065 9.99259 9 9.43765 9H5.57506C4.15289 9 3 10.1529 3 11.5751C3 12.9972 4.15289 14.1501 5.57506 14.1501H9.43765C9.99259 14.1501 10.4983 13.9395 10.8793 13.5938" stroke="#333333" stroke-width="2" stroke-linecap="round" stroke-linejoin="round"></path><path d="M13.3002 13.5938C13.6812 13.9395 14.1869 14.1501 14.7419 14.1501L18.6044 14.1501C20.0266 14.1501 21.1795 12.9973 21.1795 11.5751C21.1795 10.1529 20.0266 9.00002 18.6044 9.00002L14.7419 9.00002C14.1869 9.00002 13.6812 9.21067 13.3002 9.55637" stroke="#333333" stroke-width="2" stroke-linecap="round" stroke-linejoin="round"></path></svg>