<svg xmlns="http://www.w3.org/2000/svg" width="24" height="24" viewBox="0 0 24 24" fill="none" stroke="currentColor" stroke-width="2" stroke-linecap="round" stroke-linejoin="round" class="hicon hicon-mushroom"><path stroke="currentColor" stroke-linecap="round" stroke-linejoin="round" stroke-width="2" d="M20 8.05c0 1.104-.895 1.95-2 1.95a2 2 0 110-4M9.711 4.5c-2.006.721-3.67 2.12-4.675 3.5C4.376 8.907 4 9.806 4 10.5c0 2.21 3.806 2 8.5 2s8.5.21 8.5-2S17.194 4 12.5 4c-.977 0-1.915.186-2.789.5zm0 0L10 6c0 1.105-1.12 2-2.5 2-1.31.005-1.699-.123-2-.5m4.5 5h5l.566 5.027a3.09 3.09 0 11-6.132 0L10 12.5z"></path></svg>