<svg xmlns="http://www.w3.org/2000/svg" width="24" height="24" viewBox="0 0 24 24" fill="none" stroke="currentColor" stroke-width="2" stroke-linecap="round" stroke-linejoin="round" class="hicon hicon-pizza"><path stroke="currentColor" stroke-linecap="round" stroke-linejoin="round" stroke-width="2" d="M7.179 7.28l.673-2.542a.986.986 0 011.047-.733c8.219.814 10.704 3.457 11.577 10.62a.985.985 0 01-.68 1.054l-6.222 2.013M7.18 7.28c2.981.241 6.387.65 7.887 2.65M7.179 7.28l-2.141 8.088m7.726 2.586a1.5 1.5 0 01-1.5-1.5c0-.828.697-1.54 1.525-1.54a1.5 1.5 0 01.785 2.778m-8.733-1.581a1.5 1.5 0 10.197-.743m0 0l-1.004 3.79a1 1 0 001.275 1.208l8.265-2.674m-2.508-6.262a1.5 1.5 0 11-3 0 1.5 1.5 0 013 0z"></path></svg>