<svg xmlns="http://www.w3.org/2000/svg" width="24" height="24" viewBox="0 0 24 24" fill="none" stroke="currentColor" stroke-width="2" stroke-linecap="round" stroke-linejoin="round" class="hicon hicon-users"><circle cx="9" cy="5" r="3" stroke="currentColor" stroke-width="2" stroke-linecap="round" stroke-linejoin="round"></circle><path d="M14 8C15.6569 8 17 6.65685 17 5C17 3.34315 15.6569 2 14 2" stroke="currentColor" stroke-width="2" stroke-linecap="round" stroke-linejoin="round"></path><path d="M11 11H7C4.79086 11 3 12.7909 3 15C3 16.6569 4.34315 18 6 18H12C13.6569 18 15 16.6569 15 15C15 12.7909 13.2091 11 11 11Z" stroke="currentColor" stroke-width="2" stroke-linecap="round" stroke-linejoin="round"></path><path d="M17 11C19.2091 11 21 12.7909 21 15C21 16.6569 19.6569 18 18 18" stroke="currentColor" stroke-width="2" stroke-linecap="round" stroke-linejoin="round"></path></svg>